<svg xmlns="http://www.w3.org/2000/svg" viewBox="0 0 128 128">
	<defs>
		<linearGradient id="g" x1="0" y1="0" x2="1" y2="1">
			<stop offset="0" stop-color="#0ea5e9"/>
			<stop offset="1" stop-color="#22d3ee"/>
		</linearGradient>
	</defs>
	<rect width="128" height="128" rx="24" fill="#0b1220"/>
	<path fill="url(#g)" d="M28 76c0-24 20-44 44-44h6a2 2 0 0 1 2 2v8a2 2 0 0 1-2 2h-6c-15.464 0-28 12.536-28 28v2a2 2 0 0 1-2 2h-8a2 2 0 0 1-2-2v-6Zm28 20c0-13.255 10.745-24 24-24h20a2 2 0 0 1 2 2v8a2 2 0 0 1-2 2H80c-4.418 0-8 3.582-8 8v8a2 2 0 0 1-2 2h-8a2 2 0 0 1-2-2v-4Z"/>
</svg>